<?xml version="1.0" encoding="utf-8"?>
<!-- Generator: Adobe Illustrator 22.1.0, SVG Export Plug-In . SVG Version: 6.00 Build 0)  -->
<svg version="1.1" xmlns="http://www.w3.org/2000/svg" xmlns:xlink="http://www.w3.org/1999/xlink" x="0px" y="0px"
	 viewBox="0 0 500 500" style="enable-background:new 0 0 500 500;" xml:space="preserve">
<style type="text/css">
	.st0{fill:#4A4A4A;}
	.st1{fill:#FD916F;}
	.st2{fill:#FD9E80;}
	.st3{fill:#636363;}
	.st4{fill:#FFFFFF;}
	.st5{font-family:'Gotham-Bold';}
	.st6{font-size:28px;}
	.st7{fill:#D4ECFD;}
	.st8{fill:#FFCC00;}
	.st9{fill:#D99F00;}
	.st10{fill:#D35B33;}
	.st11{fill:#BD3E3E;}
	.st12{fill:#F8E9DB;}
	.st13{fill:#CCCCCC;}
	.st14{fill:#999999;}
	.st15{font-size:12px;}
	.st16{fill:#DD5151;}
	.st17{fill:#A73535;}
	.st18{fill:#E27B7B;}
	.st19{fill:#E69494;}
</style>
<g id="Background">
</g>
<g id="Objects">
	<g>
		<path class="st0" d="M232.4,87c-0.1,0-0.2,0-0.3,0v0C232.2,86.9,232.3,87,232.4,87z"/>
		<path class="st0" d="M315.6,201.8c-2.8,24.9-33.2,57.8-33.2,57.8h-50.2V100.2c0.1,0,0.2,0,0.4,0c0.1,0,0.2,0,0.2,0c0,0,0,0,0,0
			v0.1c3.8,0.3,22.5,2.4,38.1,14.8c5.8,4.6,11.4,10.1,16.7,16.3c10.9,21,17.8,44,25.1,55.4C315.5,191.1,316.2,196.2,315.6,201.8z"/>
		<path class="st0" d="M232.5,100.3c0.1,0,0.2,0,0.2,0v159.4h-50.2c0,0-32.2-32.9-35.6-57.8c-0.8-5.6-0.1-10.7,2.7-15.1
			c6.7-10.4,13.5-30.4,23.4-49.9c6.5-8.4,13.7-16,20.9-21.7c15.7-12.4,34.4-14.5,38.2-14.8v-0.1c0,0,0,0,0,0
			C232.2,100.2,232.3,100.3,232.5,100.3z"/>
		<path class="st0" d="M232.7,86.9L232.7,86.9c-0.1,0-0.2,0-0.3,0C232.5,87,232.6,86.9,232.7,86.9z"/>
		<rect x="215.9" y="230.2" class="st1" width="32.3" height="54.8"/>
		<path class="st1" d="M248.3,272.1c0,3.4-7.1,6.1-16,6.1c-8.8,0-16.4-4-16.4-7.4c0-3.4,7.6-4.8,16.4-4.8
			C241.1,266,248.3,268.7,248.3,272.1z"/>
		<path class="st0" d="M393.5,270.6c-59.8,18.4-51-24.7-65.2-13c-15.1,12.5-30.3,82.3-40,86c-17.3,6.5-36.1,10.1-55.7,10.1
			c-20,0-39.1-3.7-56.7-10.5c-9.4-3.6-18,56.3-26.4,51c-5.5-3.4-49.7-28.8-54.7-32.9c6.9-23.5,52.8-100.2,56.6-101.9
			c12.7-5.5,64.5-20.3,64.5-20.3s32.1,2.1,32.3,2.2c0,0,87.2-39.4,98.6-31.4C351.8,213.4,404.8,257.6,393.5,270.6z"/>
		<path class="st1" d="M202.1,191.5c0,7.4-5.7,13.4-12.8,13.4c-7.1,0-14.9-8.8-14.9-16.3c0-7.4,2.6-10.6,9.6-10.6
			C191.1,178.1,202.1,184.1,202.1,191.5z"/>
		<path class="st1" d="M264.9,191.5c0,7.4,5.7,13.4,12.8,13.4c7.1,0,14.9-8.8,14.9-16.3c0-7.4-2.6-10.6-9.6-10.6
			C275.8,178.1,264.9,184.1,264.9,191.5z"/>
		<path class="st2" d="M284.6,170.2c0,37.5-22.7,75.8-50.8,75.8c-28,0-50.8-38.3-50.8-75.8c0-37.5,22.7-59.9,50.8-59.9
			C261.9,110.2,284.6,132.7,284.6,170.2z"/>
		<path class="st0" d="M282.1,177.3h-48.2v-0.1h-48.2c0,0-1.9,14.5,4,27.6c0,0,11.4,4.1,38.2-7.4c0,0,3.3-1.5,6-1.4v0.1
			c2.7-0.1,6,1.4,6,1.4c26.8,11.4,38.2,7.4,38.2,7.4C283.9,191.8,282.1,177.3,282.1,177.3z"/>
		<path class="st3" d="M232.8,93.6L232.8,93.6C232.8,93.6,232.7,93.6,232.8,93.6c-0.1-0.1-0.2,0-0.3,0c-0.2,0-0.3,0-0.4,0
			c0,0,0,0,0,0v0.1c-55.3,6.6-88.6,92-85.5,108.3c0,0,0.1,0,0.3-0.1c3-0.9,28-8.1,85.3-9.7h0.3h0.3c57.8,1.6,80.5,8.8,82.9,9.7
			c0.1,0,0.2,0.1,0.2,0.1C319.5,180.9,284.6,91.7,232.8,93.6z"/>
		<g>
			<rect x="143.7" y="392.6" class="st0" width="174.1" height="17.5"/>
			<path class="st3" d="M324.8,397.9c0,3.3-2.7,5.9-5.9,5.9H145.3c-3.3,0-5.9-2.7-5.9-5.9V302c0-3.3,2.7-5.9,5.9-5.9h173.5
				c3.3,0,5.9,2.7,5.9,5.9V397.9z"/>
			<path class="st3" d="M324.8,410.1c0,1.6-1.3,3-3,3H142.3c-1.6,0-3-1.3-3-3l0,0c0-1.6,1.3-3,3-3h179.5
				C323.4,407.1,324.8,408.4,324.8,410.1L324.8,410.1z"/>
			<path class="st4" d="M247,352.7c0,8.3-6.7,15-15,15c-8.3,0-15-6.7-15-15c0-8.3,6.7-15,15-15C240.3,337.7,247,344.4,247,352.7z"/>
			<rect x="223.2" y="358.1" class="st4" width="17.5" height="12"/>
			<path class="st3" d="M230.8,353.3c0,2.5-2.1,4.6-4.6,4.6c-2.5,0-4.6-2.1-4.6-4.6c0-2.5,2.1-4.6,4.6-4.6
				C228.8,348.7,230.8,350.8,230.8,353.3z"/>
			<path class="st3" d="M242.5,353.3c0,2.5-2,4.6-4.6,4.6c-2.5,0-4.6-2.1-4.6-4.6c0-2.5,2.1-4.6,4.6-4.6
				C240.4,348.7,242.5,350.8,242.5,353.3z"/>
			<path class="st3" d="M231.8,362.4c0,0.6-0.5,1.1-1.1,1.1c-0.6,0-1.1-0.5-1.1-1.1c0-0.6,0.5-1.1,1.1-1.1
				C231.3,361.4,231.8,361.8,231.8,362.4z"/>
			<path class="st3" d="M234.5,362.4c0,0.6-0.5,1.1-1.1,1.1s-1.1-0.5-1.1-1.1c0-0.6,0.5-1.1,1.1-1.1S234.5,361.8,234.5,362.4z"/>
			<path class="st3" d="M228.2,368.4c0-0.7-0.6-1.3-1.3-1.3l0,0c-0.7,0-1.3,0.6-1.3,1.3v2.2c0,0.7,0.6,1.3,1.3,1.3l0,0
				c0.7,0,1.3-0.6,1.3-1.3V368.4z"/>
			<path class="st4" d="M225.7,368.3c0-0.7-0.6-1.3-1.3-1.3l0,0c-0.7,0-1.3,0.6-1.3,1.3v2.2c0,0.7,0.6,1.3,1.3,1.3l0,0
				c0.7,0,1.3-0.6,1.3-1.3V368.3z"/>
			<path class="st3" d="M233.2,368.4c0-0.7-0.6-1.3-1.3-1.3l0,0c-0.7,0-1.3,0.6-1.3,1.3v2.2c0,0.7,0.6,1.3,1.3,1.3l0,0
				c0.7,0,1.3-0.6,1.3-1.3V368.4z"/>
			<path class="st4" d="M230.7,368.3c0-0.7-0.6-1.3-1.3-1.3l0,0c-0.7,0-1.3,0.6-1.3,1.3v2.2c0,0.7,0.6,1.3,1.3,1.3l0,0
				c0.7,0,1.3-0.6,1.3-1.3V368.3z"/>
			<path class="st3" d="M238.2,368.5c0-0.7-0.6-1.3-1.3-1.3l0,0c-0.7,0-1.3,0.6-1.3,1.3v2.2c0,0.7,0.6,1.3,1.3,1.3l0,0
				c0.7,0,1.3-0.6,1.3-1.3V368.5z"/>
			<path class="st4" d="M235.7,368.4c0-0.7-0.6-1.3-1.3-1.3l0,0c-0.7,0-1.3,0.6-1.3,1.3v2.2c0,0.7,0.6,1.3,1.3,1.3l0,0
				c0.7,0,1.3-0.6,1.3-1.3V368.4z"/>
			<path class="st4" d="M240.8,368.4c0-0.7-0.6-1.3-1.3-1.3l0,0c-0.7,0-1.3,0.6-1.3,1.3v2.2c0,0.7,0.6,1.3,1.3,1.3l0,0
				c0.7,0,1.3-0.6,1.3-1.3V368.4z"/>
		</g>
	</g>
	<text transform="matrix(1 0 0 1 166 325.6605)" class="st4 st5 st6">BeerPWN</text>
</g>
<g id="Designed_by_Freepik">
	<g>
		<path class="st7" d="M360.2,279.6c-2.4,0-4.3,1.9-4.3,4.3c0,0.9,0.3,2.6,0.8,4.3h7.1c0.5-1.7,0.8-3.4,0.8-4.3
			C364.5,281.5,362.6,279.6,360.2,279.6z"/>
	</g>
	<rect x="356.4" y="353.2" class="st8" width="36" height="55.3"/>
	<rect x="356.4" y="353.2" class="st9" width="18.1" height="55.3"/>
	<path class="st10" d="M356.4,391h8.8c2.4,2.2,5.7,3.5,9.2,3.5c3.5,0,6.8-1.3,9.2-3.5h8.8v-20.3h-8.8c-2.4-2.2-5.7-3.5-9.2-3.5
		c-3.5,0-6.8,1.3-9.2,3.5h-8.8V391z"/>
	<path class="st11" d="M365.2,370.7h-8.8V391h8.8c2.4,2.2,5.7,3.5,9.2,3.5c0,0,0,0,0.1,0v-27.4c0,0,0,0-0.1,0
		C370.9,367.1,367.6,368.5,365.2,370.7L365.2,370.7z"/>
	<circle class="st4" cx="374.4" cy="380.8" r="10.1"/>
	<path class="st12" d="M364.3,380.8c0,5.6,4.5,10.1,10.1,10.1c0,0,0,0,0.1,0v-20.2c0,0,0,0-0.1,0
		C368.8,370.7,364.3,375.2,364.3,380.8z"/>
	<polygon class="st13" points="356.4,353.2 392.4,353.2 389.3,349 359.5,349 	"/>
	<polygon class="st14" points="356.4,353.2 374.4,353.2 374.4,349 359.5,349 	"/>
	<polygon class="st13" points="392.4,408.5 356.4,408.5 359.5,412.7 389.3,412.7 	"/>
	<polygon class="st14" points="359.5,412.7 374.4,412.7 374.4,408.5 356.4,408.5 	"/>
	<text transform="matrix(0.8231 0 0 1 368.7842 385.125)" class="st5 st15">~#</text>
	<g>
		<path class="st16" d="M398.2,297.5l4.2,27.1c2,12.8-8,24.4-20.9,24.4h-14.2c-13,0-22.9-11.6-20.9-24.4l4.2-27.1
			c0.3-2.1,2.1-3.6,4.2-3.6h39.3C396.2,293.9,397.9,295.4,398.2,297.5z"/>
		<rect x="355.3" y="274.8" class="st11" width="38.1" height="19.1"/>
		<rect x="355.3" y="274.8" class="st17" width="12.7" height="19.1"/>
		<path class="st11" d="M355.4,323.9c-1.1,5.3-6.8,8.2-11.7,6l-1.2-0.5c-4.5-2-6.4-7.4-4-11.7l11.5-21.5c0.7-1.4,2.2-2.2,3.7-2.2
			h8.1L355.4,323.9z"/>
		<path class="st17" d="M345.6,316.3l-4.5,12.3c0.4,0.3,0.9,0.6,1.4,0.8l1.2,0.5c2.7,1.2,5.5,0.8,7.8-0.5l1.1-11.5
			C353,313.7,347,312.3,345.6,316.3z"/>
		<g>
			<path class="st4" d="M395.6,281.2v6.4c0,1.2-0.9,2.1-2.1,2.1h-38.1V279h38.1C394.6,279,395.6,280,395.6,281.2z"/>
			<path class="st4" d="M395.6,272.7L395.6,272.7c0,1.2-0.9,2.1-2.1,2.1h-38.1c-1.2,0-2.1-0.9-2.1-2.1l0,0c0-1.2,0.9-2.1,2.1-2.1
				h38.1C394.6,270.6,395.6,271.5,395.6,272.7z"/>
		</g>
		<g>
			<rect x="355.3" y="279" class="st12" width="12.7" height="10.6"/>
			<path class="st12" d="M368,270.6h-12.7c-1.2,0-2.1,0.9-2.1,2.1s0.9,2.1,2.1,2.1H368c-1.2,0-2.1-0.9-2.1-2.1
				S366.9,270.6,368,270.6z"/>
		</g>
		<path class="st11" d="M370.3,293.9h-15.6c-2.1,0-3.9,1.5-4.2,3.6l-4.2,27.1c-2,12.8,8,24.4,20.9,24.4h14.2c0.2,0,0.5,0,0.7,0
			c-12.6-0.4-22.2-11.8-20.2-24.4l4.2-27.1C366.4,295.4,368.2,293.9,370.3,293.9z"/>
		<path class="st18" d="M396.9,316.9l1.3,8.3c0.5,3.4,0,6.8-1.4,9.9c-0.5,1.1-1.8,1.5-2.8,1c-1.1-0.5-1.5-1.8-1-2.8
			c1.1-2.3,1.5-4.9,1.1-7.4l-1.3-8.3c-0.2-1.2,0.6-2.2,1.8-2.4c0.1,0,0.2,0,0.3,0C395.9,315.1,396.8,315.8,396.9,316.9z"/>
		<path class="st19" d="M391,339.3c0.6,1,0.3,2.3-0.7,2.9c-1.5,0.9-3.1,1.6-4.8,2c-1.1,0.3-2.3-0.4-2.6-1.6
			c-0.3-1.1,0.4-2.3,1.6-2.6c1.3-0.3,2.5-0.8,3.6-1.5c0.3-0.2,0.7-0.3,1.1-0.3C389.9,338.3,390.6,338.7,391,339.3z"/>
	</g>
</g>
</svg>
